<?xml version="1.0" encoding="UTF-8"?><svg id="Layer_2" xmlns="http://www.w3.org/2000/svg" viewBox="0 0 54.04 53.15"><defs><style>.cls-1{fill:#66669a;}.cls-2{fill:#358597;}</style></defs><g id="Layer_7"><path class="cls-2" d="M40.9,48.91c-1.08,.67-2.37,1.35-3.86,1.94,0,0-.72,.28-1.87,.62l-.69-2.4s-2.43,.72-5.17,.9c-2.99,.2-4.26-.14-4.26-.14,0,0-.06,1.07-.11,2.53-3.71-.47-7.17-1.77-10.19-3.71l1.47-1.99s-2.06-1.49-3.88-3.54c-1.98-2.25-2.49-3.46-2.49-3.46,0,0-1.02,.71-2.37,1.68-1.86-2.9-3.11-6.25-3.58-9.86l2.23-.22s-.26-2.52,.07-5.25c.36-2.98,.92-4.16,.92-4.16,0,0-.98-.24-2.35-.54,.74-2.63,1.86-5.1,3.23-7.08,7.04,.11,13.44,2.85,15.68,4.71,.07,.05,.14,.12,.15,.13,.41,.35,.8,.71,1.16,1.06-.12,.01-.23,.04-.35,.07-.3,.09-.66,.28-.97,.45-1.34,.72-2.19,1.65-2.51,2.02-1.46,1.71-2.26,3.97-2.08,6.38,.38,4.83,4.6,8.44,9.43,8.07,1.33-.11,2.48-.56,2.56-.59,.37-.17,1.46-.65,2.01-1.09,1.99,3.79,3.86,7.84,6.58,11.74,.41,.59,.83,1.17,1.24,1.74Z"/><path class="cls-1" d="M25.19,18.77c3.3,3.03,4.13,5.5,6.68,11.09,2.08,4.55,3.43,7.49,5.54,11.51,8.7,16.62,16.63,10.79,16.63,10.79-3.88-1.97-7.25-3.79-7.75-6,6.81-6.01,4.22-13.65,4.03-13.56-7.1,3.67-11.65,3.11-12.51,2.97,.21-.08,.52-.21,.89-.37,.24-.11,3.27-1.4,5.31-2.68,2.64-1.65,4.66-3.93,5.87-5.47-.33-6.16-2.48-10.25-3.78-12.29-1.18-1.85-2.33-3.17-3.07-3.88-3.91-3.78-8.81-9.7-9.1-10.88,.31,1.32-1.74,7.14-3.35,9.18-2.17,2.75-4.73,4.09-6.08,4.68,.11-.16,.28-.39,.46-.67,.09-.14,1.66-2.5,2.23-4.33,.63-2.01,1.49-3.25,1.42-3.26-1.23-.63-8.1-3.04-15.13-.95C7.17,6.54,5.56,9.61,0,12.83c1.26-.73,9.96,.15,13.32,.84,2.88,.6,7.91,1.48,11.87,5.1Z"/></g></svg>